<?xml version="1.0" standalone="no"?>
<!DOCTYPE svg PUBLIC "-//W3C//DTD SVG 20010904//EN"
 "http://www.w3.org/TR/2001/REC-SVG-20010904/DTD/svg10.dtd">
<svg version="1.0" xmlns="http://www.w3.org/2000/svg"
 width="272.421567pt" height="225.442922pt" viewBox="0 0 272.421567 225.442922"
 preserveAspectRatio="xMidYMid meet">
<metadata>
Created by potrace 1.12, written by Peter Selinger 2001-2015
</metadata>
<g transform="translate(-7.617147,243.000000) scale(0.100000,-0.100000)"
fill="#000000" stroke="none">
<path d="M740 1570 l0 -860 -40 20 c-106 54 -235 46 -371 -22 -104 -52 -180
-122 -220 -204 -67 -135 -29 -256 96 -310 57 -24 181 -22 266 5 122 39 238
131 295 234 l29 52 3 833 2 832 970 0 970 0 0 -70 0 -70 -280 0 -280 0 0 -140
0 -140 280 0 280 0 0 -517 c0 -495 -1 -515 -18 -500 -78 70 -250 69 -397 -4
-89 -43 -187 -135 -222 -207 -39 -80 -40 -171 -1 -229 63 -95 220 -125 376
-70 40 14 94 39 121 56 66 43 147 131 174 188 l22 48 3 968 2 967 -1030 0
-1030 0 0 -860z"/>
<path d="M1121 554 c-79 -66 -28 -194 78 -194 24 0 42 9 67 34 29 29 34 41 34
79 0 95 -106 143 -179 81z"/>
</g>
</svg>
