<?xml version="1.0" standalone="no"?>
<!DOCTYPE svg PUBLIC "-//W3C//DTD SVG 20010904//EN"
 "http://www.w3.org/TR/2001/REC-SVG-20010904/DTD/svg10.dtd">
<svg version="1.0" xmlns="http://www.w3.org/2000/svg"
 width="122.919027pt" height="225.840432pt" viewBox="0 0 122.919027 225.840432"
 preserveAspectRatio="xMidYMid meet">
<metadata>
Created by potrace 1.12, written by Peter Selinger 2001-2015
</metadata>
<g transform="translate(-29.207786,269.000000) scale(0.100000,-0.100000)"
fill="#000000" stroke="none">
<path d="M960 1826 l0 -865 -47 27 c-44 25 -57 27 -153 27 -91 -1 -114 -5
-168 -27 -259 -110 -380 -353 -243 -489 102 -102 325 -86 496 36 76 54 120
107 151 183 l24 57 0 958 0 957 -30 0 -30 0 0 -864z"/>
<path d="M1352 821 c-52 -33 -67 -97 -35 -151 41 -71 154 -67 192 7 50 98 -63
202 -157 144z"/>
</g>
</svg>
