<?xml version="1.0" standalone="no"?>
<!DOCTYPE svg PUBLIC "-//W3C//DTD SVG 20010904//EN"
 "http://www.w3.org/TR/2001/REC-SVG-20010904/DTD/svg10.dtd">
<svg version="1.0" xmlns="http://www.w3.org/2000/svg"
 width="199.267763pt" height="108.822137pt" viewBox="0 0 199.267763 108.822137"
 preserveAspectRatio="xMidYMid meet">
<metadata>
Created by potrace 1.12, written by Peter Selinger 2001-2015
</metadata>
<g transform="translate(-18.066387,131.855891) scale(0.100000,-0.100000)"
fill="#000000" stroke="none">
<path d="M1867 1314 c-4 -4 -7 -192 -7 -417 0 -386 -1 -409 -17 -401 -74 33
-185 2 -252 -71 -45 -49 -58 -93 -41 -136 43 -104 261 -62 326 63 11 22 14 92
14 358 0 297 2 330 16 330 25 0 156 -138 189 -200 28 -51 30 -62 29 -160 0
-79 -6 -121 -22 -169 -11 -36 -19 -68 -16 -73 21 -33 73 105 84 221 14 139
-17 226 -138 392 -76 104 -109 162 -127 223 -12 40 -25 53 -38 40z"/>
<path d="M500 899 c0 -388 -1 -411 -17 -403 -10 4 -40 9 -66 12 -40 3 -60 -2
-114 -28 -108 -53 -154 -153 -99 -216 20 -24 32 -28 87 -32 55 -3 71 0 118 25
30 15 68 45 85 66 l31 39 3 474 c2 420 1 474 -13 474 -13 0 -15 -49 -15 -411z"/>
<path d="M682 408 c-15 -15 -15 -61 0 -76 7 -7 24 -12 38 -12 33 0 50 17 50
50 0 33 -17 50 -50 50 -14 0 -31 -5 -38 -12z"/>
</g>
</svg>
