<?xml version="1.0" standalone="no"?>
<!DOCTYPE svg PUBLIC "-//W3C//DTD SVG 20010904//EN"
 "http://www.w3.org/TR/2001/REC-SVG-20010904/DTD/svg10.dtd">
<svg version="1.0" xmlns="http://www.w3.org/2000/svg"
 width="226.890262pt" height="226.008830pt" viewBox="0 0 226.890262 226.008830"
 preserveAspectRatio="xMidYMid meet">
<metadata>
Created by potrace 1.12, written by Peter Selinger 2001-2015
</metadata>
<g transform="translate(-24.109738,253.000000) scale(0.100000,-0.100000)"
fill="#000000" stroke="none">
<path d="M910 1666 l0 -865 -47 27 c-62 34 -182 42 -269 17 -135 -39 -275
-146 -324 -249 -98 -205 63 -368 313 -316 142 29 298 143 355 260 l27 55 3
828 3 827 739 0 740 0 0 -724 0 -725 -47 27 c-44 25 -57 27 -153 27 -91 -1
-114 -5 -168 -27 -259 -110 -380 -353 -243 -489 102 -102 325 -86 496 36 76
54 120 107 151 183 l24 57 0 958 0 957 -800 0 -800 0 0 -864z"/>
</g>
</svg>
