<?xml version="1.0" standalone="no"?>
<!DOCTYPE svg PUBLIC "-//W3C//DTD SVG 20010904//EN"
 "http://www.w3.org/TR/2001/REC-SVG-20010904/DTD/svg10.dtd">
<svg version="1.0" xmlns="http://www.w3.org/2000/svg"
 width="329.428278pt" height="226.016236pt" viewBox="0 0 329.428278 226.016236"
 preserveAspectRatio="xMidYMid meet">
<metadata>
Created by potrace 1.12, written by Peter Selinger 2001-2015
</metadata>
<g transform="translate(-18.071722,245.007406) scale(0.100000,-0.100000)"
fill="#000000" stroke="none">
<path d="M850 1585 l0 -866 -47 27 c-61 36 -180 45 -269 19 -135 -39 -275
-146 -324 -249 -79 -167 8 -312 195 -324 180 -11 396 110 473 267 l27 56 3
828 3 827 739 0 740 0 0 -724 0 -725 -46 26 c-56 31 -162 42 -245 24 -84 -18
-193 -77 -258 -140 -172 -166 -155 -371 36 -427 205 -59 498 98 558 299 13 43
15 144 15 649 l0 598 485 0 485 0 0 -514 0 -515 -47 27 c-62 34 -182 42 -269
17 -135 -39 -275 -146 -324 -249 -98 -205 63 -368 313 -316 142 29 298 143
355 260 l27 55 0 965 0 965 -1312 3 -1313 2 0 -865z m2570 515 l0 -70 -485 0
-485 0 0 70 0 70 485 0 485 0 0 -70z"/>
</g>
</svg>
