<?xml version="1.0" standalone="no"?>
<!DOCTYPE svg PUBLIC "-//W3C//DTD SVG 20010904//EN"
 "http://www.w3.org/TR/2001/REC-SVG-20010904/DTD/svg10.dtd">
<svg version="1.0" xmlns="http://www.w3.org/2000/svg"
 width="516.836364pt" height="227.935287pt" viewBox="0 0 516.836364 227.935287"
 preserveAspectRatio="xMidYMid meet">
<metadata>
Created by potrace 1.12, written by Peter Selinger 2001-2015
</metadata>
<g transform="translate(-24.207786,249.000000) scale(0.100000,-0.100000)"
fill="#000000" stroke="none">
<path d="M917 2484 c-4 -4 -7 -398 -7 -875 l0 -868 -47 27 c-44 25 -57 27
-153 27 -91 -1 -114 -5 -168 -27 -259 -110 -380 -353 -243 -489 154 -154 533
-31 644 208 22 48 22 51 27 741 l5 693 75 -50 c135 -89 288 -269 361 -426 83
-177 76 -396 -22 -692 -17 -51 -28 -97 -24 -103 3 -5 15 -10 26 -10 27 0 89
132 123 260 91 339 41 618 -160 895 -36 50 -107 148 -159 220 -105 144 -161
250 -204 382 -22 66 -33 89 -48 91 -10 2 -22 0 -26 -4z"/>
<path d="M4777 2483 c-4 -3 -7 -397 -7 -874 l0 -868 -52 27 c-181 94 -488 -28
-590 -235 -27 -54 -30 -70 -26 -126 5 -80 33 -126 102 -163 174 -95 487 28
586 230 l31 62 -1 687 c0 575 2 687 13 687 24 0 130 -74 198 -137 114 -107
242 -307 274 -428 18 -70 21 -238 6 -335 -12 -76 -42 -191 -71 -274 -27 -79
-26 -98 3 -94 45 6 121 192 152 372 20 117 21 292 2 382 -17 80 -65 205 -104
274 -14 25 -83 124 -153 220 -69 96 -141 196 -158 221 -60 89 -125 232 -152
337 -8 30 -16 42 -29 42 -10 0 -21 -3 -24 -7z"/>
<path d="M2457 2463 c-4 -3 -7 -393 -7 -865 l0 -859 -27 19 c-61 43 -186 55
-284 26 -198 -58 -352 -216 -353 -362 -1 -202 229 -274 483 -151 77 38 178
135 212 204 l24 50 3 973 2 972 -23 0 c-13 0 -27 -3 -30 -7z"/>
</g>
</svg>
