<?xml version="1.0" standalone="no"?>
<!DOCTYPE svg PUBLIC "-//W3C//DTD SVG 20010904//EN"
 "http://www.w3.org/TR/2001/REC-SVG-20010904/DTD/svg10.dtd">
<svg version="1.0" xmlns="http://www.w3.org/2000/svg"
 width="387.868385pt" height="225.313059pt" viewBox="0 0 387.868385 225.313059"
 preserveAspectRatio="xMidYMid meet">
<metadata>
Created by potrace 1.12, written by Peter Selinger 2001-2015
</metadata>
<g transform="translate(-10.170142,245.000000) scale(0.100000,-0.100000)"
fill="#000000" stroke="none">
<path d="M770 1583 c0 -831 -1 -865 -18 -850 -10 9 -33 23 -52 31 -140 57
-344 0 -480 -134 -75 -74 -109 -135 -117 -212 -4 -45 -1 -61 24 -108 24 -46
38 -60 87 -84 51 -26 67 -30 139 -29 101 1 191 28 273 81 74 49 149 128 177
190 22 46 22 54 25 665 l3 617 494 0 495 0 0 -510 c0 -280 -2 -510 -4 -510 -3
0 -20 9 -39 20 -166 98 -480 -20 -586 -220 -47 -88 -51 -149 -14 -220 24 -46
38 -60 87 -84 51 -26 67 -30 139 -29 101 1 191 28 273 81 74 49 149 128 177
190 22 46 22 54 25 665 l3 617 494 0 495 0 0 -510 c0 -280 -2 -510 -4 -510 -3
0 -20 9 -39 20 -92 54 -233 46 -368 -22 -225 -112 -321 -324 -206 -455 48 -55
106 -77 202 -76 146 2 278 62 382 176 97 106 93 77 93 772 l0 605 495 0 495 0
0 -510 c0 -280 -2 -510 -4 -510 -3 0 -20 9 -39 20 -92 54 -233 46 -368 -22
-224 -112 -321 -324 -206 -455 48 -55 106 -77 202 -76 180 2 357 105 441 256
l29 52 3 973 2 972 -1605 0 -1605 0 0 -867z m1050 517 l0 -70 -495 0 -495 0 0
70 0 70 495 0 495 0 0 -70z m1050 0 l0 -70 -495 0 -495 0 0 70 0 70 495 0 495
0 0 -70z m1050 0 l0 -70 -495 0 -495 0 0 70 0 70 495 0 495 0 0 -70z"/>
</g>
</svg>
