<?xml version="1.0" standalone="no"?>
<!DOCTYPE svg PUBLIC "-//W3C//DTD SVG 20010904//EN"
 "http://www.w3.org/TR/2001/REC-SVG-20010904/DTD/svg10.dtd">
<svg version="1.0" xmlns="http://www.w3.org/2000/svg"
 width="278.067844pt" height="225.926017pt" viewBox="0 0 278.067844 225.926017"
 preserveAspectRatio="xMidYMid meet">
<metadata>
Created by potrace 1.12, written by Peter Selinger 2001-2015
</metadata>
<g transform="translate(-7.970684,235.000000) scale(0.100000,-0.100000)"
fill="#000000" stroke="none">
<path d="M750 1485 l0 -864 -52 27 c-140 73 -364 18 -510 -125 -113 -111 -142
-262 -66 -349 44 -50 101 -76 178 -81 182 -13 393 104 471 262 l31 62 1 614 2
614 485 0 485 0 3 -512 c1 -294 -2 -513 -7 -513 -5 0 -14 6 -20 14 -20 24
-101 46 -171 46 -172 0 -366 -116 -440 -262 -104 -209 55 -370 312 -317 134
28 284 133 343 241 l30 53 3 838 2 837 485 0 485 0 0 -726 0 -725 -27 19 c-95
67 -283 51 -426 -35 -253 -153 -286 -431 -60 -499 182 -55 457 72 544 251 l24
50 3 973 2 972 -1055 0 -1055 0 0 -865z m1028 513 l3 -68 -491 0 -490 0 0 63
c0 35 3 67 7 70 3 4 223 6 487 5 l481 -3 3 -67z"/>
</g>
</svg>
