<?xml version="1.0" standalone="no"?>
<!DOCTYPE svg PUBLIC "-//W3C//DTD SVG 20010904//EN"
 "http://www.w3.org/TR/2001/REC-SVG-20010904/DTD/svg10.dtd">
<svg version="1.0" xmlns="http://www.w3.org/2000/svg"
 width="334.500000pt" height="225.577938pt" viewBox="0 0 334.500000 225.577938"
 preserveAspectRatio="xMidYMid meet">
<metadata>
Created by potrace 1.12, written by Peter Selinger 2001-2015
</metadata>
<g transform="translate(-24.500000,247.000000) scale(0.100000,-0.100000)"
fill="#000000" stroke="none">
<path d="M910 1604 l0 -865 -28 19 c-69 48 -202 61 -302 28 -135 -44 -263
-144 -311 -242 -19 -39 -24 -65 -24 -126 0 -70 2 -79 31 -115 40 -49 78 -71
148 -84 156 -29 382 69 476 206 63 91 61 71 60 738 l-1 607 281 0 280 0 0 140
0 140 -280 0 -280 0 0 70 0 70 500 0 500 0 0 -726 0 -725 -27 19 c-110 76
-300 57 -455 -47 -120 -81 -181 -172 -186 -281 -3 -78 21 -128 83 -172 164
-115 505 10 609 223 l27 56 -1 827 0 826 760 0 760 0 0 -70 0 -70 -280 0 -280
0 0 -140 0 -140 280 0 280 0 0 -510 c0 -280 -2 -510 -4 -510 -3 0 -20 9 -39
20 -92 54 -233 46 -368 -22 -177 -88 -284 -249 -249 -377 14 -54 64 -109 120
-134 61 -28 181 -27 271 2 133 42 268 159 308 266 21 55 21 69 21 1010 l0 955
-1340 0 -1340 0 0 -866z"/>
</g>
</svg>
